<svg width="83" height="83" viewBox="0 0 83 83" fill="none" xmlns="http://www.w3.org/2000/svg">
<path d="M62.852 0.909771C65.0426 -0.80979 68.1903 1.1239 67.6466 3.85525L61.3993 35.2412C61.2284 36.1 61.4412 36.9905 61.9818 37.6793L81.7413 62.8521C83.4608 65.0427 81.5272 68.1904 78.7958 67.6467L47.4098 61.3994C46.5511 61.2285 45.6605 61.4413 44.9718 61.9819L19.799 81.7414C17.6083 83.4609 14.4607 81.5273 15.0043 78.7959L21.2516 47.4099C21.4226 46.5512 21.2098 45.6606 20.6692 44.9719L0.909673 19.7991C-0.809888 17.6084 1.1238 14.4608 3.85515 15.0044L35.2412 21.2517C36.0999 21.4226 36.9904 21.2099 37.6792 20.6693L62.852 0.909771Z"/>
</svg>
